<mxfile host="app.diagrams.net" modified="2024-01-24T22:33:56.864Z" agent="Mozilla/5.0 (Windows NT 10.0; Win64; x64) AppleWebKit/537.36 (KHTML, like Gecko) Chrome/120.0.0.0 Safari/537.36" etag="Qg02Q38j9dnJ9wwc0zLk" version="23.0.1" type="device">
  <diagram id="JIO4U5yVURzNJD8ckPtT" name="Page-1">
    <mxGraphModel dx="882" dy="578" grid="1" gridSize="10" guides="1" tooltips="1" connect="1" arrows="1" fold="1" page="1" pageScale="1" pageWidth="850" pageHeight="1100" math="0" shadow="0">
      <root>
        <mxCell id="0" />
        <mxCell id="1" parent="0" />
        <mxCell id="jVAOY2Lbpxn42im7dIGs-4" style="edgeStyle=orthogonalEdgeStyle;rounded=0;orthogonalLoop=1;jettySize=auto;html=1;exitX=1;exitY=0.5;exitDx=0;exitDy=0;entryX=0;entryY=0.25;entryDx=0;entryDy=0;" parent="1" source="QQ5iUyurzTZGA6GbT3NC-1" target="jVAOY2Lbpxn42im7dIGs-1" edge="1">
          <mxGeometry relative="1" as="geometry" />
        </mxCell>
        <mxCell id="QQ5iUyurzTZGA6GbT3NC-1" value="Video corpus" style="rounded=1;whiteSpace=wrap;html=1;" parent="1" vertex="1">
          <mxGeometry x="40" y="440" width="120" height="60" as="geometry" />
        </mxCell>
        <mxCell id="D7wJQ47TmKwd4SI4p0gG-13" style="edgeStyle=orthogonalEdgeStyle;rounded=0;orthogonalLoop=1;jettySize=auto;html=1;exitX=0.5;exitY=0;exitDx=0;exitDy=0;entryX=0.5;entryY=1;entryDx=0;entryDy=0;" edge="1" parent="1" source="QQ5iUyurzTZGA6GbT3NC-3" target="QQ5iUyurzTZGA6GbT3NC-4">
          <mxGeometry relative="1" as="geometry" />
        </mxCell>
        <mxCell id="QQ5iUyurzTZGA6GbT3NC-3" value="Ranking" style="rounded=1;whiteSpace=wrap;html=1;" parent="1" vertex="1">
          <mxGeometry x="600" y="440" width="120" height="60" as="geometry" />
        </mxCell>
        <mxCell id="D7wJQ47TmKwd4SI4p0gG-14" style="edgeStyle=orthogonalEdgeStyle;rounded=0;orthogonalLoop=1;jettySize=auto;html=1;exitX=0.5;exitY=0;exitDx=0;exitDy=0;entryX=0.5;entryY=1;entryDx=0;entryDy=0;" edge="1" parent="1" source="QQ5iUyurzTZGA6GbT3NC-4" target="QQ5iUyurzTZGA6GbT3NC-14">
          <mxGeometry relative="1" as="geometry" />
        </mxCell>
        <mxCell id="QQ5iUyurzTZGA6GbT3NC-4" value="Re-ranking" style="rounded=1;whiteSpace=wrap;html=1;" parent="1" vertex="1">
          <mxGeometry x="600" y="280" width="120" height="60" as="geometry" />
        </mxCell>
        <mxCell id="D7wJQ47TmKwd4SI4p0gG-3" style="edgeStyle=orthogonalEdgeStyle;rounded=0;orthogonalLoop=1;jettySize=auto;html=1;exitX=0;exitY=0.5;exitDx=0;exitDy=0;entryX=0.5;entryY=0;entryDx=0;entryDy=0;" edge="1" parent="1" source="QQ5iUyurzTZGA6GbT3NC-5" target="QQ5iUyurzTZGA6GbT3NC-30">
          <mxGeometry relative="1" as="geometry" />
        </mxCell>
        <mxCell id="D7wJQ47TmKwd4SI4p0gG-12" style="edgeStyle=orthogonalEdgeStyle;rounded=0;orthogonalLoop=1;jettySize=auto;html=1;exitX=1;exitY=0.5;exitDx=0;exitDy=0;entryX=0.25;entryY=0;entryDx=0;entryDy=0;" edge="1" parent="1" source="QQ5iUyurzTZGA6GbT3NC-5" target="QQ5iUyurzTZGA6GbT3NC-3">
          <mxGeometry relative="1" as="geometry">
            <Array as="points">
              <mxPoint x="520" y="310" />
              <mxPoint x="520" y="370" />
              <mxPoint x="630" y="370" />
            </Array>
          </mxGeometry>
        </mxCell>
        <mxCell id="QQ5iUyurzTZGA6GbT3NC-5" value="User features" style="rounded=1;whiteSpace=wrap;html=1;" parent="1" vertex="1">
          <mxGeometry x="360" y="280" width="120" height="60" as="geometry" />
        </mxCell>
        <mxCell id="QQ5iUyurzTZGA6GbT3NC-15" style="edgeStyle=orthogonalEdgeStyle;rounded=0;orthogonalLoop=1;jettySize=auto;html=1;exitX=0.5;exitY=1;exitDx=0;exitDy=0;entryX=0.5;entryY=0;entryDx=0;entryDy=0;" parent="1" source="QQ5iUyurzTZGA6GbT3NC-6" target="QQ5iUyurzTZGA6GbT3NC-7" edge="1">
          <mxGeometry relative="1" as="geometry" />
        </mxCell>
        <mxCell id="QQ5iUyurzTZGA6GbT3NC-6" value="User" style="rounded=1;whiteSpace=wrap;html=1;" parent="1" vertex="1">
          <mxGeometry x="360" y="40" width="120" height="60" as="geometry" />
        </mxCell>
        <mxCell id="QQ5iUyurzTZGA6GbT3NC-16" style="edgeStyle=orthogonalEdgeStyle;rounded=0;orthogonalLoop=1;jettySize=auto;html=1;exitX=0.5;exitY=1;exitDx=0;exitDy=0;entryX=0.5;entryY=0;entryDx=0;entryDy=0;" parent="1" source="QQ5iUyurzTZGA6GbT3NC-7" target="QQ5iUyurzTZGA6GbT3NC-5" edge="1">
          <mxGeometry relative="1" as="geometry" />
        </mxCell>
        <mxCell id="QQ5iUyurzTZGA6GbT3NC-7" value="Feature preparation" style="rounded=1;whiteSpace=wrap;html=1;" parent="1" vertex="1">
          <mxGeometry x="360" y="160" width="120" height="60" as="geometry" />
        </mxCell>
        <mxCell id="D7wJQ47TmKwd4SI4p0gG-15" style="edgeStyle=orthogonalEdgeStyle;rounded=0;orthogonalLoop=1;jettySize=auto;html=1;exitX=0.5;exitY=0;exitDx=0;exitDy=0;" edge="1" parent="1" source="QQ5iUyurzTZGA6GbT3NC-11" target="QQ5iUyurzTZGA6GbT3NC-3">
          <mxGeometry relative="1" as="geometry" />
        </mxCell>
        <mxCell id="D7wJQ47TmKwd4SI4p0gG-17" style="edgeStyle=orthogonalEdgeStyle;rounded=0;orthogonalLoop=1;jettySize=auto;html=1;exitX=0;exitY=0.5;exitDx=0;exitDy=0;entryX=1;entryY=0.5;entryDx=0;entryDy=0;" edge="1" parent="1" source="QQ5iUyurzTZGA6GbT3NC-11" target="QQ5iUyurzTZGA6GbT3NC-42">
          <mxGeometry relative="1" as="geometry" />
        </mxCell>
        <mxCell id="QQ5iUyurzTZGA6GbT3NC-11" value="Video feature store" style="rounded=1;whiteSpace=wrap;html=1;" parent="1" vertex="1">
          <mxGeometry x="600" y="720" width="120" height="60" as="geometry" />
        </mxCell>
        <mxCell id="QQ5iUyurzTZGA6GbT3NC-14" value="Top k videos" style="rounded=1;whiteSpace=wrap;html=1;" parent="1" vertex="1">
          <mxGeometry x="600" y="160" width="120" height="60" as="geometry" />
        </mxCell>
        <mxCell id="QQ5iUyurzTZGA6GbT3NC-21" value="billions" style="text;html=1;strokeColor=none;fillColor=none;align=center;verticalAlign=middle;whiteSpace=wrap;rounded=0;" parent="1" vertex="1">
          <mxGeometry x="160" y="440" width="80" height="30" as="geometry" />
        </mxCell>
        <mxCell id="QQ5iUyurzTZGA6GbT3NC-24" value="thousands" style="text;html=1;strokeColor=none;fillColor=none;align=center;verticalAlign=middle;whiteSpace=wrap;rounded=0;" parent="1" vertex="1">
          <mxGeometry x="520" y="440" width="80" height="30" as="geometry" />
        </mxCell>
        <mxCell id="QQ5iUyurzTZGA6GbT3NC-26" value="hundreds" style="text;html=1;strokeColor=none;fillColor=none;align=center;verticalAlign=middle;whiteSpace=wrap;rounded=0;" parent="1" vertex="1">
          <mxGeometry x="660" y="370" width="80" height="30" as="geometry" />
        </mxCell>
        <mxCell id="QQ5iUyurzTZGA6GbT3NC-27" value="dozens" style="text;html=1;strokeColor=none;fillColor=none;align=center;verticalAlign=middle;whiteSpace=wrap;rounded=0;" parent="1" vertex="1">
          <mxGeometry x="660" y="240" width="80" height="30" as="geometry" />
        </mxCell>
        <mxCell id="D7wJQ47TmKwd4SI4p0gG-16" style="edgeStyle=orthogonalEdgeStyle;rounded=0;orthogonalLoop=1;jettySize=auto;html=1;exitX=0;exitY=0.5;exitDx=0;exitDy=0;entryX=0.5;entryY=1;entryDx=0;entryDy=0;" edge="1" parent="1" source="QQ5iUyurzTZGA6GbT3NC-40" target="QQ5iUyurzTZGA6GbT3NC-30">
          <mxGeometry relative="1" as="geometry">
            <Array as="points">
              <mxPoint x="180" y="750" />
              <mxPoint x="180" y="500" />
              <mxPoint x="320" y="500" />
            </Array>
          </mxGeometry>
        </mxCell>
        <mxCell id="QQ5iUyurzTZGA6GbT3NC-40" value="ANN service" style="rounded=1;whiteSpace=wrap;html=1;" parent="1" vertex="1">
          <mxGeometry x="200" y="720" width="120" height="60" as="geometry" />
        </mxCell>
        <mxCell id="D7wJQ47TmKwd4SI4p0gG-18" style="edgeStyle=orthogonalEdgeStyle;rounded=0;orthogonalLoop=1;jettySize=auto;html=1;exitX=0;exitY=0.5;exitDx=0;exitDy=0;entryX=1;entryY=0.5;entryDx=0;entryDy=0;" edge="1" parent="1" source="QQ5iUyurzTZGA6GbT3NC-42" target="QQ5iUyurzTZGA6GbT3NC-40">
          <mxGeometry relative="1" as="geometry" />
        </mxCell>
        <mxCell id="QQ5iUyurzTZGA6GbT3NC-42" value="Indexed video embeddings" style="rounded=1;whiteSpace=wrap;html=1;" parent="1" vertex="1">
          <mxGeometry x="400" y="720" width="120" height="60" as="geometry" />
        </mxCell>
        <mxCell id="jVAOY2Lbpxn42im7dIGs-1" value="" style="swimlane;startSize=0;" parent="1" vertex="1">
          <mxGeometry x="240" y="400" width="280" height="280" as="geometry" />
        </mxCell>
        <mxCell id="D7wJQ47TmKwd4SI4p0gG-4" style="edgeStyle=orthogonalEdgeStyle;rounded=0;orthogonalLoop=1;jettySize=auto;html=1;exitX=1;exitY=0.5;exitDx=0;exitDy=0;" edge="1" parent="jVAOY2Lbpxn42im7dIGs-1" source="QQ5iUyurzTZGA6GbT3NC-30" target="D7wJQ47TmKwd4SI4p0gG-2">
          <mxGeometry relative="1" as="geometry" />
        </mxCell>
        <mxCell id="QQ5iUyurzTZGA6GbT3NC-30" value="Relevant videos" style="rounded=1;whiteSpace=wrap;html=1;" parent="jVAOY2Lbpxn42im7dIGs-1" vertex="1">
          <mxGeometry x="40" y="40" width="80" height="40" as="geometry" />
        </mxCell>
        <mxCell id="D7wJQ47TmKwd4SI4p0gG-5" style="edgeStyle=orthogonalEdgeStyle;rounded=0;orthogonalLoop=1;jettySize=auto;html=1;exitX=1;exitY=0.5;exitDx=0;exitDy=0;entryX=0;entryY=0.5;entryDx=0;entryDy=0;" edge="1" parent="jVAOY2Lbpxn42im7dIGs-1" source="QQ5iUyurzTZGA6GbT3NC-31" target="D7wJQ47TmKwd4SI4p0gG-2">
          <mxGeometry relative="1" as="geometry" />
        </mxCell>
        <mxCell id="QQ5iUyurzTZGA6GbT3NC-31" value="Popular videos" style="rounded=1;whiteSpace=wrap;html=1;" parent="jVAOY2Lbpxn42im7dIGs-1" vertex="1">
          <mxGeometry x="40" y="120" width="80" height="40" as="geometry" />
        </mxCell>
        <mxCell id="D7wJQ47TmKwd4SI4p0gG-6" style="edgeStyle=orthogonalEdgeStyle;rounded=0;orthogonalLoop=1;jettySize=auto;html=1;exitX=1;exitY=0.5;exitDx=0;exitDy=0;" edge="1" parent="jVAOY2Lbpxn42im7dIGs-1" source="QQ5iUyurzTZGA6GbT3NC-32" target="D7wJQ47TmKwd4SI4p0gG-2">
          <mxGeometry relative="1" as="geometry" />
        </mxCell>
        <mxCell id="QQ5iUyurzTZGA6GbT3NC-32" value="Trending videos" style="rounded=1;whiteSpace=wrap;html=1;" parent="jVAOY2Lbpxn42im7dIGs-1" vertex="1">
          <mxGeometry x="40" y="200" width="80" height="40" as="geometry" />
        </mxCell>
        <mxCell id="jVAOY2Lbpxn42im7dIGs-7" value="candidate generation" style="text;html=1;strokeColor=none;fillColor=none;align=center;verticalAlign=middle;whiteSpace=wrap;rounded=0;" parent="jVAOY2Lbpxn42im7dIGs-1" vertex="1">
          <mxGeometry x="160" width="120" height="30" as="geometry" />
        </mxCell>
        <mxCell id="D7wJQ47TmKwd4SI4p0gG-2" value="Content-based filtering" style="rounded=1;whiteSpace=wrap;html=1;" vertex="1" parent="jVAOY2Lbpxn42im7dIGs-1">
          <mxGeometry x="160" y="120" width="80" height="40" as="geometry" />
        </mxCell>
        <mxCell id="D7wJQ47TmKwd4SI4p0gG-9" style="edgeStyle=orthogonalEdgeStyle;rounded=0;orthogonalLoop=1;jettySize=auto;html=1;exitX=1;exitY=0.5;exitDx=0;exitDy=0;entryX=0;entryY=0.5;entryDx=0;entryDy=0;" edge="1" parent="1" source="D7wJQ47TmKwd4SI4p0gG-2" target="QQ5iUyurzTZGA6GbT3NC-3">
          <mxGeometry relative="1" as="geometry" />
        </mxCell>
      </root>
    </mxGraphModel>
  </diagram>
</mxfile>
